<?xml version="1.0" encoding="utf-8"?>
<!-- Generator: Adobe Illustrator 19.2.1, SVG Export Plug-In . SVG Version: 6.00 Build 0)  -->
<svg version="1.1" id="Layer_1" xmlns="http://www.w3.org/2000/svg" xmlns:xlink="http://www.w3.org/1999/xlink" x="0px" y="0px"
	 viewBox="0 0 370 370" style="enable-background:new 0 0 370 370;" xml:space="preserve">
<style type="text/css">
	.st0{fill:#3C7BDA;}
</style>
<path class="st0" d="M59.9,43.3c-1.4-7.8-3.8-15.3-7.1-22.5c-0.8-1.6-2.4-2.6-4.1-2.5c-3.4,0.1-6.6,0.8-9.6,2.1c0-0.2,0-0.4,0-0.5
	c-0.6-5.3-5.4-9.2-10.7-8.6c-4.3,0.5-7.7,3.7-8.5,7.9l-2.5-0.6c-1.6-0.4-3.2,0.4-3.7,2l-3.4,9.2c-0.3,0.8-0.2,1.8,0.2,2.5
	c0.4,0.8,1.1,1.4,2,1.6l2.8,0.7L15,38.3l-1.5,2.6c-0.1,0.1-0.1,0.3-0.1,0.4L13.2,45l-1.1,1.4c-0.1,0.1-0.2,0.3-0.2,0.5l-0.3,4.6
	l-1.4,2.3c-0.2,0.3-0.2,0.7,0.1,1l2.6,3.5c0.2,0.2,0.5,0.4,0.8,0.4c0.1,0,0.2,0,0.3,0l4.9-1.6c0.3-0.1,0.5-0.3,0.6-0.7l5-19.6
	l2.6,0.7c0.3,0.1,0.5,0.1,0.8,0.1c0.6,0,1.2-0.2,1.7-0.5c0.7-0.5,1.2-1.3,1.4-2.1l0.7-4.6c0.7-0.2,1.3-0.4,1.9-0.6
	c1.4,6.8,3.6,13.5,6.6,19.8c0.7,1.5,2.3,2.5,4,2.5c0.1,0,0.1,0,0.2,0c5-0.2,9.6-1.7,13.8-4.4C59.5,46.7,60.2,45,59.9,43.3L59.9,43.3
	z M20.3,24.5L20.3,24.5c0.3,0.6,0.6,1.2,0.9,1.7c0.2,0.3,0.5,0.4,0.8,0.4c0.2,0,0.4,0,0.5-0.2c0.4-0.3,0.6-0.9,0.3-1.3L22.7,25
	l1.6,0.4c0.5,0.1,0.9,0.7,0.7,1.2c-0.1,0.5-0.7,0.9-1.2,0.7l-3.8-1c-0.3-0.1-0.5-0.2-0.6-0.5c-0.1-0.2-0.2-0.5-0.1-0.8
	s0.2-0.5,0.5-0.6C20,24.5,20.1,24.5,20.3,24.5L20.3,24.5z M13.2,52.3c0.1-0.1,0.1-0.3,0.1-0.4l0.3-4.5l1.1-1.4
	c0.1-0.2,0.2-0.3,0.2-0.5l0.2-3.9l1.5-2.6c0.1-0.1,0.1-0.3,0.1-0.4L17,35l1.3,0.3l-5.2,20.4L12,54.3L13.2,52.3z M22.6,36.4
	l-4.9,19.1l-2.8,0.9l5.3-20.6l1.6,0.4L22.6,36.4z M29,34.7c-0.1,0.4-0.2,0.7-0.5,0.9s-0.7,0.3-1,0.2L12.9,32
	c-0.3-0.1-0.6-0.3-0.8-0.6c-0.2-0.3-0.2-0.7-0.1-1l3.4-9.2c0.2-0.6,0.9-0.9,1.5-0.8l2.8,0.7c0,0.3,0,0.6,0.1,1
	c0,0.2,0.1,0.4,0.1,0.6c-0.3,0.1-0.7,0.2-1,0.4c-0.7,0.4-1.1,1-1.3,1.8c-0.2,0.7-0.1,1.5,0.3,2.2s1,1.1,1.8,1.3l3.8,1
	c0.2,0.1,0.5,0.1,0.7,0.1c0.5,0,1-0.1,1.5-0.4c0.7-0.4,1.1-1,1.3-1.8c0.2-0.7,0.1-1.5-0.3-2.2s-1-1.1-1.8-1.3l-3-0.8
	c-0.1-0.4-0.2-0.7-0.2-1.1c0-0.1,0-0.2,0-0.3l8,2c0.6,0.2,1,0.8,0.9,1.4L29,34.7z M31.9,28.4l0.5-3.1c0.2-1.6-0.8-3.1-2.3-3.5
	l-8.4-2.1c0.6-3.4,3.4-6.1,6.9-6.5c4.3-0.5,8.2,2.6,8.7,6.9c0,0.4,0.1,0.8,0,1.2c-0.8,0.4-1.6,0.9-2.3,1.4c-1.5,1-2.2,2.7-1.9,4.4
	c0,0.3,0.1,0.5,0.1,0.8C32.7,28,32.3,28.2,31.9,28.4L31.9,28.4z M57,46.1c-3.9,2.5-8.2,3.9-12.8,4.1c-1,0-1.9-0.5-2.4-1.4
	c-3-6.4-5.2-13.1-6.6-20c1.1-0.8,2-1.8,2.7-3c0.3-0.5,0.1-1-0.4-1.3s-1-0.1-1.3,0.4c-0.4,0.7-0.9,1.3-1.4,1.8
	c-0.1-0.9,0.3-1.9,1.1-2.4c3.9-2.5,8.2-3.9,12.8-4.1h0.1c1,0,1.8,0.6,2.3,1.4c3.3,7,5.6,14.4,7,22C58.3,44.6,57.8,45.6,57,46.1
	L57,46.1z"/>
<g>
	<path class="st0" d="M82,43.5c-1.4,0-2.5,1.1-2.5,2.5s1.1,2.5,2.5,2.5s2.5-1.1,2.5-2.5C84.5,44.7,83.4,43.5,82,43.5L82,43.5z
		 M82,46.7c-0.4,0-0.7-0.3-0.7-0.7s0.3-0.7,0.7-0.7c0.4,0,0.7,0.3,0.7,0.7S82.4,46.7,82,46.7L82,46.7z"/>
	<path class="st0" d="M108,43.5c-1.4,0-2.5,1.1-2.5,2.5s1.1,2.5,2.5,2.5s2.5-1.1,2.5-2.5C110.5,44.7,109.4,43.5,108,43.5L108,43.5z
		 M108,46.7c-0.4,0-0.7-0.3-0.7-0.7s0.3-0.7,0.7-0.7c0.4,0,0.7,0.3,0.7,0.7S108.4,46.7,108,46.7L108,46.7z"/>
	<path class="st0" d="M118.8,41.6V23.7c0-2.9-2.4-5.3-5.3-5.3H79.4c-4.5,0-8.2,3.7-8.2,8.2v15C70.5,42.2,70,43,70,44v0.1
		c0,1.6,1.3,2.9,2.9,2.9h3.7c0.4,2.6,2.7,4.6,5.4,4.6s5-2,5.4-4.6h15.2c0.4,2.6,2.7,4.6,5.4,4.6c2.7,0,5-2,5.4-4.6h3.7
		c1.6,0,2.9-1.3,2.9-2.9V44C120,43,119.5,42.2,118.8,41.6L118.8,41.6z M117,32.2h-2.5c-0.1,0-0.2-0.1-0.2-0.2v-7
		c0-0.1,0.1-0.2,0.2-0.2h2.5V32.2z M71.8,44.1L71.8,44.1c0-0.7,0.5-1.2,1.1-1.2h4.6c-0.5,0.7-0.8,1.4-0.9,2.2h-3.7
		C72.3,45.1,71.8,44.7,71.8,44.1L71.8,44.1z M82,49.7c-2,0-3.7-1.6-3.7-3.7c0-2,1.6-3.7,3.7-3.7c2,0,3.7,1.6,3.7,3.7
		C85.7,48.1,84,49.7,82,49.7L82,49.7z M102.6,45.1H87.4c-0.4-2.6-2.7-4.6-5.4-4.6c-0.8,0-1.6,0.2-2.3,0.5H73V26.7
		c0-3.5,2.9-6.4,6.4-6.4h34.2c1.6,0,2.9,1.1,3.3,2.5h-2.4c-1.1,0-2.1,0.9-2.1,2.1v7c0,1.1,0.9,2.1,2.1,2.1h2.5v7.1h-6.8
		c-0.7-0.3-1.5-0.5-2.3-0.5C105.3,40.6,103,42.6,102.6,45.1L102.6,45.1z M108,49.7c-2,0-3.7-1.6-3.7-3.7c0-2,1.6-3.7,3.7-3.7
		c2,0,3.7,1.6,3.7,3.7C111.6,48.1,110,49.7,108,49.7L108,49.7z M118.2,44.1c0,0.6-0.5,1.1-1.1,1.1h-3.7c-0.1-0.8-0.5-1.6-0.9-2.2
		h4.6C117.7,43,118.2,43.5,118.2,44.1L118.2,44.1z"/>
	<path class="st0" d="M109.8,31.9v-7c0-1.1-0.9-2.1-2.1-2.1H79.6c-2.4,0-4.4,2-4.4,4.4v4.7c0,1.1,0.9,2.1,2.1,2.1h30.5
		C108.8,34,109.8,33.1,109.8,31.9L109.8,31.9z M93.4,24.7h7.2v7.5h-7.2V24.7z M91.5,32.2h-7.2v-7.5h7.2V32.2z M77,31.9v-4.7
		c0-1.4,1.2-2.6,2.6-2.6h3v7.5h-5.3C77.1,32.2,77,32.1,77,31.9L77,31.9z M107.9,31.9c0,0.1-0.1,0.2-0.2,0.2h-5.3v-7.5h5.3
		c0.1,0,0.2,0.1,0.2,0.2V31.9z"/>
	<path class="st0" d="M115,39.6c0.5,0,0.9-0.4,0.9-0.9v-0.8c0-0.5-0.4-0.9-0.9-0.9s-0.9,0.4-0.9,0.9v0.8
		C114.1,39.2,114.5,39.6,115,39.6L115,39.6z"/>
</g>
<g>
	<path class="st0" d="M149.1,46.2c-0.3,0-0.4-0.1-0.6-0.3c-0.1-0.2-0.2-0.4-0.2-0.6l0.4-3.4h-13.8c-1.9,0-3.5-1.6-3.5-3.5V13.5
		c0-1.9,1.6-3.5,3.5-3.5h37.7c1.9,0,3.5,1.6,3.5,3.5v24.8c0,1.9-1.6,3.5-3.5,3.5h-12.9l0.4,3.5c0.1,0.2,0,0.4-0.2,0.6
		c-0.2,0.2-0.4,0.3-0.6,0.3H149.1z M150.2,44.5h8.3l-0.2-2.7h-7.7L150.2,44.5z M133.4,38.3c0,1,0.7,1.8,1.7,1.8h37.7
		c1,0,1.8-0.8,1.8-1.8v-1.1h-41.2V38.3z M135.1,11.7c-0.9,0-1.7,0.8-1.7,1.8v22h41.2v-22c0-1-0.8-1.8-1.8-1.8H135.1z"/>
	<path class="st0" d="M135.7,53.3c-0.3,0-0.5-0.2-0.7-0.5c-0.1-0.2-0.2-0.5,0-0.8l1.9-3.7c0.1-0.2,0.4-0.4,0.8-0.4h32.1
		c0.4,0,0.7,0.2,0.8,0.5l1.9,3.7c0.2,0.3,0.2,0.5,0,0.8c-0.1,0.3-0.4,0.5-0.9,0.5H135.7z M137.4,51.5h33.1l-1-1.9h-31L137.4,51.5z"
		/>
	<path class="st0" d="M169.9,60c-0.6,0-0.9-0.5-0.9-0.9c0-2.2,1.8-3.9,3.9-3.9h1.5c2.2,0,4,1.7,4.1,3.9c0,0.6-0.5,0.9-0.9,0.9H169.9
		z M172.9,56.9c-0.8,0-1.5,0.5-2,1.3l-0.1,0.2h5.7l-0.1-0.2c-0.4-0.8-1.2-1.3-2-1.3H172.9z"/>
</g>
<g>
	<path class="st0" d="M234.2,26h-10.8v-2.9c0-1.3-1-2.3-2.3-2.3h-9.2c-1.3,0-2.3,1-2.3,2.3V26h-10.8c-0.4,0-0.8,0.3-0.8,0.8v24.7
		c0,0.4,0.4,0.8,0.8,0.8h35.5c0.4,0,0.8-0.3,0.8-0.8V26.8C235,26.4,234.6,26,234.2,26L234.2,26z M211.9,22.5h9.2
		c0.4,0,0.7,0.3,0.7,0.7h-10.6C211.2,22.8,211.5,22.5,211.9,22.5L211.9,22.5z M211.1,24.7h10.7V26h-10.7V24.7z M233.4,27.6v18.8
		c-2.2,0.3-4,2.1-4.4,4.4h-25.2c-0.3-2.2-2.1-4-4.4-4.4V27.6H233.4z M199.5,48c1.4,0.3,2.5,1.4,2.8,2.8h-2.8V48z M230.6,50.8
		c0.3-1.4,1.4-2.5,2.8-2.8v2.8H230.6z"/>
	<g>
		<path class="st0" d="M240,25.7c-0.1-0.2-0.2-0.4-0.4-0.5l-11.4-5.8c-0.2-0.1-0.4-0.1-0.6,0c-0.2,0.1-0.4,0.2-0.5,0.4l-2.1,4.1
			c-0.2,0.4,0,0.9,0.3,1.1c0.4,0.2,0.9,0,1.1-0.3l1.7-3.4l10,5.1l-2.5,5c-0.2,0.4,0,0.9,0.3,1.1c0.1,0.1,0.2,0.1,0.4,0.1
			c0.3,0,0.6-0.2,0.7-0.4l2.9-5.7C240,26.1,240,25.9,240,25.7L240,25.7z"/>
		<path class="st0" d="M191.8,25.1l9.7-5.6l0.4,0.6l-8.7,5c-0.4,0.2-0.5,0.7-0.3,1.1l2.9,5.1c0.1,0.3,0.4,0.4,0.7,0.4
			c0.1,0,0.3,0,0.4-0.1c0.4-0.2,0.5-0.7,0.3-1.1l-2.5-4.4l9.7-5.6l2.5,4.4c0.2,0.4,0.7,0.5,1.1,0.3c0.4-0.2,0.5-0.7,0.3-1.1
			l-2.9-5.1c-0.1-0.2-0.3-0.3-0.5-0.4s-0.4,0-0.6,0.1l-1,0.6l-0.7-1.3c-0.1-0.2-0.3-0.3-0.5-0.4s-0.4,0-0.6,0.1l-11.1,6.4
			c-0.4,0.2-0.5,0.7-0.3,1.1l5.9,10.6c0.1,0.3,0.4,0.4,0.7,0.4c0.1,0,0.3,0,0.4-0.1c0.4-0.2,0.5-0.7,0.3-1.1L191.8,25.1z"/>
	</g>
</g>
<g>
	<path class="st0" d="M271.5,36h-5.4V11.8h3.3c0.4,2.7,2.8,4.8,5.6,4.8c2.8,0,5.1-2.1,5.6-4.8h3.3v13.5c0,0.5,0.4,0.9,0.9,0.9
		s0.9-0.4,0.9-0.9v-2.4l1.9,0.9c0.1,0.1,0.3,0.1,0.4,0.1c0.3,0,0.6-0.1,0.7-0.4l4.2-6c0.3-0.4,0.2-0.9-0.2-1.2l-7.4-6.2
		c-0.2-0.1-0.4-0.2-0.6-0.2h-19.6c-0.2,0-0.4,0.1-0.6,0.2l-7.4,6.2c-0.4,0.3-0.4,0.8-0.2,1.2l4.2,6c0.2,0.2,0.4,0.4,0.7,0.4
		c0.1,0,0.3,0,0.4-0.1l1.9-0.9v14c0,0.5,0.4,0.9,0.9,0.9h6.3c0.5,0,0.9-0.4,0.9-0.9C272.4,36.4,272,36,271.5,36L271.5,36z
		 M287.7,21.9l-2-1v-8.2l5.3,4.4L287.7,21.9z M275,14.7c-1.8,0-3.4-1.3-3.8-3h7.6C278.4,13.5,276.8,14.7,275,14.7L275,14.7z
		 M262.3,21.9l-3.3-4.7l5.3-4.4V21L262.3,21.9z"/>
	<path class="st0" d="M292,27.2h-17.7c-0.5,0-0.9,0.4-0.9,0.9v31.1c0,0.5,0.4,0.9,0.9,0.9h6.8c0.5,0,0.9-0.4,0.9-0.8l1.2-21.5
		l1.2,21.5c0,0.5,0.4,0.8,0.9,0.8h6.8c0.5,0,0.9-0.4,0.9-0.9V28C292.9,27.6,292.5,27.2,292,27.2L292,27.2z M291.2,30.9h-2.8v-2h2.8
		V30.9z M279.7,30.9v-2h6.9v2H279.7z M278,28.9v2h-2.8v-2H278z M286.1,58.2l-1.2-21.6c0-0.5-0.4-0.8-0.9-0.8h-1.7
		c-0.5,0-0.9,0.4-0.9,0.8l-1.2,21.6h-5.1V32.7h16v25.6h-5V58.2z"/>
</g>
<g>
	<path class="st0" d="M355.2,48.3c-1,0-1.9,0.3-2.7,0.8l-16.7-16.7v-14c0-0.5-0.4-0.9-0.9-0.9c-2.1,0-4.1,0.4-6,1.2l0,0
		c-1.5,0.7-2.9,1.5-4.2,2.6l-8.1-8.1c-0.8-0.8-1.8-1.2-2.8-1.2c-1.1,0-2.1,0.4-2.8,1.2c-0.8,0.8-1.2,1.8-1.2,2.8
		c0,1.1,0.4,2.1,1.2,2.8l1.3,1.3c0.3,0.3,0.9,0.3,1.2,0c0.3-0.3,0.3-0.9,0-1.2l-1.3-1.3c-0.4-0.4-0.7-1-0.7-1.6
		c0-0.6,0.2-1.2,0.7-1.6c0.4-0.4,1-0.7,1.6-0.7s1.2,0.2,1.6,0.7l8.1,8.1c-5.3,5.9-5.1,15,0.4,20.8l-2.9,5.1c-0.5-0.2-1-0.3-1.5-0.3
		c-2.6,0-4.8,2.1-4.8,4.8c0,2.6,2.1,4.8,4.8,4.8c2.6,0,4.8-2.1,4.8-4.8c0-1.5-0.7-2.8-1.7-3.6l2.7-4.8c2.7,2.2,6.1,3.4,9.7,3.4
		c3.8,0,7.4-1.4,10.2-3.9l6.1,6.1c-0.5,0.8-0.8,1.7-0.8,2.7c0,2.6,2.1,4.8,4.8,4.8c2.6,0,4.8-2.1,4.8-4.8
		C360,50.4,357.9,48.3,355.2,48.3L355.2,48.3z M322.6,53c0,1.7-1.4,3-3,3c-1.7,0-3-1.4-3-3c0-1.7,1.4-3,3-3c0.2,0,0.4,0,0.7,0.1
		l-1.4,2.5c-0.2,0.4-0.1,0.9,0.3,1.2c0.1,0.1,0.3,0.1,0.4,0.1c0.3,0,0.6-0.2,0.8-0.4l1.4-2.5C322.3,51.5,322.6,52.2,322.6,53
		L322.6,53z M334.2,19.3v9.2l-3.6-8.5C331.7,19.7,332.9,19.4,334.2,19.3L334.2,19.3z M328.9,20.8l3.5,8.3l-6.4-6.4
		C327,21.9,327.9,21.3,328.9,20.8L328.9,20.8z M324.9,23.9l6.5,6.5L325,41.8C320.4,36.7,320.4,29,324.9,23.9L324.9,23.9z M335,46.3
		c-3.3,0-6.3-1.1-8.8-3.3l6.4-11.4L343.9,43C341.5,45.2,338.3,46.3,335,46.3L335,46.3z M355.2,56.1c-1.7,0-3-1.4-3-3
		c0-0.5,0.1-1,0.4-1.4l2,2c0.2,0.2,0.4,0.3,0.6,0.3s0.4-0.1,0.6-0.3c0.3-0.3,0.3-0.9,0-1.2l-2-2c0.4-0.2,0.9-0.4,1.4-0.4
		c1.7,0,3,1.4,3,3C358.3,54.7,356.9,56.1,355.2,56.1L355.2,56.1z"/>
</g>
<g>
	<path class="st0" d="M44.7,96.4c-0.5-0.5-1.1-0.8-1.8-0.8c-0.2,0-0.3,0-0.5,0L30.8,84.3l2.2-2.2c0.4-0.4,0.4-0.9,0-1.3l-0.6-0.6
		l8.4-8.4c0.3-0.3,0.3-0.6,0.2-1c-0.1-0.3-0.4-0.6-0.8-0.6c-4.8-0.3-9.6,1.4-13.1,4.8l-0.6-0.6c-0.2-0.2-0.4-0.3-0.6-0.3
		s-0.5,0.1-0.6,0.3l-9.1,9.1c-0.4,0.4-0.4,0.9,0,1.3l0.9,0.9l-1.6,1.6l-0.9-0.9c-0.4-0.4-0.9-0.4-1.3,0L10,89.7c0.1,0.1,0,0.3,0,0.6
		c0,0.2,0.1,0.5,0.3,0.6l6.3,6.3c0.2,0.2,0.4,0.3,0.6,0.3s0.5-0.1,0.6-0.3l3.3-3.3c0.2-0.2,0.3-0.4,0.3-0.6s-0.1-0.5-0.3-0.6
		l-0.9-0.9l1.6-1.6l0.9,0.9c0.2,0.2,0.4,0.3,0.6,0.3s0.5-0.1,0.6-0.3l2.2-2.2l11.5,11.5c-0.2,0.8,0.1,1.7,0.7,2.3L52,116.3
		c0.5,0.5,1.1,0.8,1.8,0.8s1.4-0.3,1.8-0.8l2.5-2.5c1-1,1-2.7,0-3.7L44.7,96.4z M38.1,72l-6.9,6.9l-2.6-2.6
		C31.2,73.8,34.5,72.3,38.1,72L38.1,72z M17.2,95.3l-5-5l2-2l5,5L17.2,95.3z M19,90.5l-2-2l1.6-1.6l2,2L19,90.5z M23.4,89.2l-5-5
		l7.8-7.8l5,5L23.4,89.2z M29.6,85.5l11.2,11.2l-2,2L27.5,87.6L29.6,85.5z M57,112.4l-2.5,2.5c-0.1,0.1-0.3,0.2-0.6,0.2
		c-0.2,0-0.4-0.1-0.6-0.2l-13.6-13.6c-0.3-0.3-0.3-0.8,0-1.1l2.5-2.5c0.1-0.1,0.3-0.2,0.6-0.2c0.2,0,0.4,0.1,0.6,0.2L57,111.3
		C57.3,111.6,57.3,112.1,57,112.4L57,112.4z"/>
	<path class="st0" d="M40.2,90.7c-0.4,0.4-0.4,0.9,0,1.3s0.9,0.4,1.3,0l1.9-1.9c2.3-2.3,3.4-5.5,3.1-8.6c-0.2-1.9,0.5-3.8,2-5.1
		c0.4-0.4,0.9-0.7,1.4-0.9l-0.7,2.4c-0.3,1-0.2,2,0.3,3c0.5,0.9,1.3,1.6,2.3,1.9c2.1,0.6,4.2-0.5,4.9-2.6l0.8-2.5
		c0.5,0.9,0.8,1.9,0.9,3c0,1.6-0.6,3.1-1.7,4.2c-0.7,0.7-1.4,1.1-2.3,1.4c-1.7,0.5-3.2,1.4-4.3,2.6L45,93.7c-0.4,0.4-0.4,0.9,0,1.3
		c0.2,0.2,0.4,0.3,0.6,0.3c0.2,0,0.5-0.1,0.6-0.3l4.8-4.8c1-1,2.2-1.7,3.6-2.2c1.1-0.4,2.2-1,3.1-1.9c1.5-1.5,2.3-3.4,2.2-5.5
		c0-2.1-0.9-4-2.4-5.5c-0.2-0.2-0.6-0.3-0.9-0.2c-0.3,0.1-0.5,0.3-0.6,0.6l-1.3,4.1c-0.3,1.1-1.5,1.7-2.6,1.4c-0.5-0.2-1-0.5-1.2-1
		c-0.3-0.5-0.3-1.1-0.1-1.6l1.3-4c0.1-0.3,0-0.6-0.2-0.9c-0.2-0.2-0.5-0.4-0.8-0.3c-1.4,0.2-2.7,0.9-3.8,1.8
		c-1.9,1.7-2.8,4.1-2.6,6.6c0.3,2.6-0.6,5.2-2.6,7.1L40.2,90.7z"/>
	<path class="st0" d="M35.7,103c-2.3,2.3-3.4,5.5-3.1,8.6c0.2,1.9-0.5,3.8-2,5.1c-0.4,0.4-0.9,0.7-1.4,0.9l0.7-2.4
		c0.3-1,0.2-2-0.3-3c-0.5-0.9-1.3-1.6-2.3-1.9s-2-0.2-3,0.3c-0.9,0.5-1.6,1.3-1.9,2.3l-0.8,2.5c-0.5-0.9-0.8-1.9-0.9-3
		c0-1.6,0.6-3.1,1.7-4.2c0.7-0.7,1.4-1.1,2.3-1.4c1.6-0.5,3.2-1.4,4.3-2.6l4.8-4.8c0.4-0.4,0.4-0.9,0-1.3s-0.9-0.4-1.3,0l-4.8,4.8
		c-1,1-2.2,1.7-3.6,2.2c-1.1,0.4-2.2,1-3.1,1.9c-1.5,1.5-2.3,3.4-2.2,5.5c0,2.1,0.9,4,2.4,5.5c0.2,0.2,0.6,0.3,0.9,0.2
		c0.3-0.1,0.5-0.3,0.6-0.6l1.3-4.1c0.2-0.5,0.5-1,1-1.2c0.5-0.3,1.1-0.3,1.6-0.1c0.5,0.2,1,0.5,1.2,1c0.3,0.5,0.3,1.1,0.1,1.6
		l-1.3,4c-0.1,0.3,0,0.6,0.2,0.9c0.2,0.2,0.4,0.3,0.7,0.3h0.1c1.4-0.2,2.7-0.9,3.8-1.8c1.9-1.7,2.8-4.1,2.6-6.6
		c-0.3-2.6,0.6-5.2,2.6-7.1c0.4-0.4,0.4-0.9,0-1.3C36.6,102.6,36.1,102.6,35.7,103L35.7,103z"/>
</g>
<g>
	<path class="st0" d="M117.4,92.6V80.3c0-1.7-1.4-3.1-3.1-3.1H75.6c-1.7,0-3.1,1.4-3.1,3.1v12.3c-1.5,0.2-2.6,1.5-2.6,3v7.6
		c0,0.5,0.4,1,1,1h1v4.8c0,0.5,0.4,1,1,1h1.7v1.9c0,0.5,0.4,1,1,1c0.5,0,1-0.4,1-1V110h36.7v1.9c0,0.5,0.4,1,1,1c0.5,0,1-0.4,1-1
		V110h1.7c0.5,0,1-0.4,1-1v-4.8h1c0.5,0,1-0.4,1-1v-7.6C120,94.1,118.9,92.8,117.4,92.6L117.4,92.6z M74.5,80.3
		c0-0.6,0.5-1.1,1.1-1.1h38.7c0.6,0,1.1,0.5,1.1,1.1v12.3H112c0.7-0.7,1.4-1.5,2.1-2.3c0.3-0.4,0.3-0.9,0-1.3
		c-2.8-3.2-5.1-5.5-8.3-8.3c-0.4-0.3-0.9-0.3-1.3,0c-3.2,2.8-5.5,5.1-8.3,8.3c-0.3,0.4-0.3,0.9,0,1.3c0.7,0.8,1.4,1.6,2.1,2.3h-6.6
		c0.7-0.7,1.4-1.5,2.1-2.3c0.3-0.4,0.3-0.9,0-1.3c-2.8-3.2-5.1-5.5-8.3-8.3c-0.4-0.3-0.9-0.3-1.3,0c-3.2,2.8-5.5,5.1-8.3,8.3
		c-0.3,0.4-0.3,0.9,0,1.3c0.7,0.8,1.4,1.6,2.1,2.3h-3.4L74.5,80.3L74.5,80.3z M101,92.6c-0.9-0.9-1.8-1.9-2.7-2.9
		c2.3-2.6,4.3-4.6,7-7c2.6,2.3,4.6,4.3,7,7c-0.9,1.1-1.8,2-2.7,2.9H101z M80.6,92.6c-0.9-0.9-1.8-1.9-2.7-2.9c2.3-2.6,4.3-4.6,7-7
		c2.6,2.3,4.6,4.3,7,7c-0.9,1.1-1.8,2-2.7,2.9H80.6z M116.1,108H73.9v-3.8H116L116.1,108L116.1,108z M118.1,102.3H71.9v-6.7
		c0-0.6,0.5-1.1,1.1-1.1h44c0.6,0,1.1,0.5,1.1,1.1V102.3z"/>
</g>
<g>
	<path class="st0" d="M171.1,118.1h-5.3l-15.7-47.6c-0.1-0.4-0.6-0.7-1.1-0.5c-0.4,0.1-0.7,0.6-0.5,1.1l8.7,26.3h-18.4
		c-0.5,0-0.8,0.4-0.8,0.8V111c0,0.3,0.1,0.5,0.3,0.6s0.3,0.2,0.5,0.2c0.1,0,0.1,0,0.2,0l0.6-0.1l0.9,7.4c0,0.4,0.4,0.7,0.8,0.7H155
		c0.4,0,0.8-0.3,0.8-0.7l0.6-5.5l0,0c2-0.4,3.2-1.3,3.6-2.7c0.5-1.7-0.4-4-2.5-6.7l0.5-4.3l6,18.1h-5.2c-0.5,0-0.8,0.4-0.8,0.8
		c0,0.5,0.4,0.8,0.8,0.8h12.3c0.5,0,0.8-0.4,0.8-0.8C172,118.5,171.6,118.1,171.1,118.1L171.1,118.1z M139.7,110.1v-11h7.1v9.6
		L139.7,110.1z M154.3,118.3H142l-0.8-6.8l6.6-1.3c0.4-0.1,0.7-0.4,0.7-0.8V99.1h8l-0.4,3.5c-1.3-1.4-2.4-2.4-2.5-2.5
		c-0.3-0.3-0.9-0.3-1.2,0.1c-0.3,0.3-0.3,0.9,0.1,1.2c1,0.9,2.2,2.2,3.3,3.5L154.3,118.3z M158.5,110.6c-0.2,0.6-0.8,1.1-1.8,1.4
		l0.6-5.2C158.2,108.3,158.7,109.6,158.5,110.6L158.5,110.6z"/>
	<path class="st0" d="M142.5,96.7c1.2,0,2.2-1,2.2-2.2s-1-2.2-2.2-2.2s-2.2,1-2.2,2.2C140.3,95.8,141.3,96.7,142.5,96.7L142.5,96.7z
		 M142.5,94c0.3,0,0.5,0.2,0.5,0.5s-0.2,0.5-0.5,0.5s-0.5-0.2-0.5-0.5S142.2,94,142.5,94L142.5,94z"/>
	<path class="st0" d="M149.4,93.8c1.6,0,2.9-1.3,2.9-2.9S151,88,149.4,88c-1.6,0-2.9,1.3-2.9,2.9S147.8,93.8,149.4,93.8L149.4,93.8z
		 M149.4,89.6c0.7,0,1.3,0.6,1.3,1.3c0,0.7-0.6,1.3-1.3,1.3s-1.3-0.6-1.3-1.3C148.2,90.2,148.7,89.6,149.4,89.6L149.4,89.6z"/>
	<path class="st0" d="M144.5,88.7c0.1,0.3,0.5,0.5,0.8,0.5c0.4,0,0.7-0.3,0.8-0.6c0.2-0.7-0.6-1.4-1.3-1
		C144.5,87.9,144.4,88.3,144.5,88.7C144.6,88.8,144.5,88.7,144.5,88.7L144.5,88.7z"/>
</g>
<g>
	<path class="st0" d="M204.5,93H204v-4.4c0-0.5-0.4-1-1-1h-0.1v-9.1c0-0.4-0.2-0.7-0.5-0.9L195,74c-0.3-0.1-0.6-0.1-0.9,0
		c-0.3,0.2-0.5,0.5-0.5,0.8v12.8h-0.1c-0.5,0-1,0.4-1,1V93H192c-0.5,0-1,0.4-1,1v25c0,0.5,0.4,1,1,1h12.4c0.5,0,1-0.4,1-1V94
		C205.5,93.5,205,93,204.5,93L204.5,93z M195.5,76.4l5.5,2.7v8.5h-5.5V76.4z M194.5,89.6h7.5V93h-7.5V89.6z M203.6,118.1H193V95
		h10.5v23.1H203.6z"/>
	<path class="st0" d="M237.9,108.6h-31c-0.5,0-1,0.4-1,1c0,0.5,0.4,1,1,1h29.4l-0.2,0.5c-1.2,2.5-3.8,4.1-6.5,4.1H207
		c-0.5,0-1,0.4-1,1c0,0.5,0.4,1,1,1h22.7c3.5,0,6.7-2,8.2-5.2l0.9-1.8c0.1-0.3,0.1-0.6-0.1-0.9C238.6,108.8,238.3,108.6,237.9,108.6
		L237.9,108.6z"/>
	<path class="st0" d="M204.8,77c3.6-3.3,8.2-5.1,13-5.1c10.6,0,19.2,8.6,19.2,19.2c0,5.7-2.5,11.1-6.9,14.7
		c-0.4,0.3-0.5,0.9-0.1,1.3c0.2,0.2,0.5,0.3,0.7,0.3s0.4-0.1,0.6-0.2c4.8-4,7.6-9.9,7.6-16.2c0-11.6-9.5-21.1-21.1-21.1
		c-5.3,0-10.4,2-14.3,5.6c-0.4,0.4-0.4,1-0.1,1.3C203.8,77.3,204.4,77.3,204.8,77L204.8,77z"/>
	<path class="st0" d="M217.8,75.8c8.4,0,15.2,6.8,15.2,15.2s-6.8,15.2-15.2,15.2c-3.8,0-7.4-1.4-10.2-3.9c-0.4-0.4-1-0.3-1.3,0.1
		c-0.4,0.4-0.3,1,0.1,1.3c3.1,2.8,7.2,4.4,11.5,4.4c9.4,0,17.1-7.7,17.1-17.1s-7.7-17.1-17.1-17.1c-5.4,0-10.6,2.6-13.8,7
		c-0.3,0.4-0.2,1,0.2,1.3s1,0.2,1.3-0.2C208.4,78.2,213,75.8,217.8,75.8L217.8,75.8z"/>
	<path class="st0" d="M228.3,83.6L210.9,101c-0.4,0.4-0.4,1,0,1.3c0.2,0.2,0.4,0.3,0.7,0.3c0.2,0,0.5-0.1,0.7-0.3l17.4-17.4
		c0.4-0.4,0.4-1,0-1.3C229.3,83.2,228.7,83.2,228.3,83.6L228.3,83.6z"/>
	<path class="st0" d="M216.2,101.1c-0.4,0.4-0.4,1,0,1.3c0.2,0.2,0.4,0.3,0.7,0.3c0.2,0,0.5-0.1,0.7-0.3l13.1-13.1
		c0.4-0.4,0.4-1,0-1.3c-0.4-0.4-1-0.4-1.3,0L216.2,101.1z"/>
</g>
<g>
	<path class="st0" d="M276.3,115h-0.1c-0.5,0-1-0.4-1-1c0-0.3,0.1-0.5,0.3-0.7l-0.1,0.4c-0.2,0.5,0.1,1.1,0.6,1.2
		C276,115,276.2,115,276.3,115L276.3,115z M275.9,114.9c-0.5-0.2-0.8-0.7-0.6-1.2l0.1-0.4c-0.2,0.2-0.3,0.4-0.3,0.7c0,0.5,0.4,1,1,1
		h0.1C276.2,115,276,115,275.9,114.9L275.9,114.9z M280.2,104.5l0.2,0.9C280.5,105.1,280.4,104.8,280.2,104.5L280.2,104.5z
		 M274,74.8L274,74.8c0.1,0,0.1,0,0.2-0.1C274.1,74.8,274,74.8,274,74.8L274,74.8z M274.2,74.7L274.2,74.7l2.4-1.4
		C276,73.6,275,74.1,274.2,74.7L274.2,74.7z M276.9,73.2l-0.3,0.2c0.3-0.1,0.5-0.2,0.5-0.2c0.1,0,0.2-0.1,0.2-0.1
		C277.1,73.1,277,73.1,276.9,73.2L276.9,73.2z M274.2,74.7L274.2,74.7l2.4-1.4C276,73.6,275,74.1,274.2,74.7L274.2,74.7z M274,74.8
		L274,74.8c0.1,0,0.1,0,0.2-0.1C274.1,74.8,274,74.8,274,74.8L274,74.8z M276.9,73.2l-0.3,0.2c0.3-0.1,0.5-0.2,0.5-0.2
		c0.1,0,0.2-0.1,0.2-0.1C277.1,73.1,277,73.1,276.9,73.2L276.9,73.2z M299.8,75.9c-0.2-0.2-0.5-0.4-0.8-0.4h-7.1
		c-0.6-0.9-2.2-2.8-5.3-4.5c-4.3-2.3-10.3,0.2-10.6,0.3h-0.1l-0.3,0.2l0,0c0,0,0,0-0.1,0c-1.2,0.5-3.4,1.7-4.6,3.4
		c-2.1,3-3.6,7.3-2.2,10.1c0.4,0.9,1.3,1.8,2.9,2.3c-1.1,3.9-3.3,9.4-7.4,14.3c-3.1,3.8-7.8,10.6-7.7,14.8c-0.7-0.4-1.4-0.9-2-1.8
		c-0.9-1.6-0.9-3.8,0.1-6.6c1-2.8,0.2-4.4-0.4-5.1c-0.8-1-2.3-1.6-3.7-1.4c-0.5,0.1-0.9,0.6-0.8,1.1c0.1,0.5,0.6,0.9,1.1,0.8
		c0.8-0.1,1.5,0.1,1.9,0.7c0.6,0.7,0.6,1.8,0.1,3.2c-1.2,3.4-1.2,6.2,0,8.3c1.3,2.2,3.6,2.9,4.5,3.2c0.5,0.5,1.2,0.9,2.4,0.9h23.8
		c0.3,0,0.6-0.1,0.8-0.4c0.2-0.3,1.8-2.5,0.8-4.4c-0.7-1.3-2.3-2-5-2h-2.8l2.8-7.6l0,0l-0.2-0.9c-0.1-0.1-0.2-0.2-0.4-0.3
		c-0.5-0.2-1,0.1-1.2,0.6l-2.7,7.3l-0.4,1.2l-0.1,0.4c-0.2,0.5,0.1,1.1,0.6,1.2c0.1,0,0.2,0.1,0.3,0.1h4.2c1.8,0,2.9,0.3,3.2,0.9
		c0.3,0.5-0.1,1.4-0.4,2h-23c-0.9,0-1.1-0.4-1.2-0.5c-0.8-1.8,1.7-7.7,7.1-14.4c3.8-4.6,6-9.6,7.3-13.6c0.2-0.6,0.4-1.1,0.5-1.7
		c0.2,0,0.4,0,0.6,0c0.9,0,1.6-0.1,2.3-0.3c1.3-0.3,2.3-1,3-2c1.5-2.1,1.4-5.5-0.4-10.1c-0.2-0.5-0.7-0.8-1.2-0.6
		c-0.5,0.2-0.8,0.7-0.6,1.2c1.4,3.8,1.6,6.8,0.6,8.3c-0.4,0.6-1,1-1.8,1.2c-0.5,0.2-1.2,0.3-1.9,0.3c-1.9,0-3.1-0.5-3.7-1.6
		c-1-2,0.2-5.6,2-8.1c0.3-0.5,0.8-0.9,1.3-1.3v-0.1c0.1,0,0.1,0,0.2-0.1c0.9-0.6,1.8-1.1,2.4-1.4l0,0l0.3-0.2c0.1,0,0.2-0.1,0.4-0.2
		c1.4-0.5,5.5-1.8,8.4-0.2c3.6,1.9,4.8,4.1,4.8,4.1c0.2,0.3,0.5,0.5,0.9,0.5h6.3l-1.4,5.3c-0.2,0.3-0.8,0.9-1.7,1.4
		c-0.1,0-0.1,0-0.2,0l0,0c-0.5,0-1.2,0-1.9-0.1c-0.6-0.1-1.1-0.2-1.7-0.4c-1.1-0.4-1.6-1-1.7-1.6l0,0c-0.1-0.2-0.1-0.4-0.1-0.6
		c0-0.5-0.4-1-1-1c-0.5,0-1,0.4-1,1c0,1.3,0.5,3,3.1,4c0,0,0.1,0,0.2,0l-2.3,0.8c-0.3,0.1-0.6,0.4-0.6,0.8c0,0.1-0.6,5.8-1.8,10.9
		c-0.8,3.2-2.7,8.5-4.2,12.1l0,0c-0.2,0.5-0.4,0.9-0.5,1.3c-0.2,0.5,0,1.1,0.5,1.3c0.1,0,0.2,0.1,0.4,0.1c0.4,0,0.7-0.2,0.9-0.6
		c1.4-3.5,3.9-10,4.8-13.8c1-4.2,1.6-8.9,1.8-10.5l2.6-1c3.7-0.1,6-3,6.1-3.1s0.1-0.2,0.2-0.3l1.8-6.7C300,76.5,300,76.2,299.8,75.9
		L299.8,75.9z M280.2,104.5l0.2,0.9C280.5,105.1,280.4,104.8,280.2,104.5L280.2,104.5z"/>
</g>
<g>
	<path class="st0" d="M22.5,179.4c-1.9,0-3.8-0.8-5.2-2.2l-5-5c-1.4-1.4-2.2-3.2-2.2-5.2c0-1.8,0.6-3.5,1.8-4.8l0,0l0-0.1
		c-2.6-10-2.6-17.8-0.1-22.6c1.2-2.4,3.1-4,5.6-4.7c1.3-0.4,2.4-0.6,3.4-0.6c0.4,0,0.7,0,1,0.1c0.7-0.1,1.3-0.2,1.9-0.2
		c1.6,0,2.9,0.4,4.1,1.2c3.1,2.1,4.1,6.6,4.4,10c0.2,2.2-0.3,4.2-1.4,6.2c0,0.2-0.7,1.2-1.1,1.9c-0.1,0.1-0.1,0.2-0.1,0.3
		c0,0.2,0.1,0.5,0.4,0.8c0.2,0.2,0.4,0.3,0.9,0.3L48.5,138c0.1-0.1,0.1-0.2,0.2-0.3c0.1-0.1,0.1-0.2,0.2-0.3l0.3-1
		c0.1-0.2,0.2-0.4,0.4-0.4l8.3-5c0.2-0.2,0.5-0.2,0.7-0.2c0.3,0,0.7,0.1,1,0.4c0.5,0.5,0.6,1.1,0.3,1.9l-4.2,6.9
		c-0.2,0.2-0.4,0.4-0.6,0.4c-0.2,0-0.5-0.1-0.6-0.3c-0.3-0.3-0.6-0.4-1-0.4s-0.8,0.1-1,0.4l-0.7,0.7l-18.3,18.8
		c0,0.1-0.1,0.1-0.1,0.1c-0.2,0.4-0.8,1.2-0.2,1.8c0.2,0.2,0.5,0.4,0.9,0.4c0.5,0,1.1-0.2,1.9-0.5c0.1,0,0.1-0.1,0.2-0.1
		c0.3-0.2,0.6-0.2,0.9-0.2c0.3,0,0.6,0.1,0.8,0.2c0.6,0.3,1.1,1,1.1,1.8c0,0.9-0.3,1.7-1.1,2.4c-0.9,1-3.2,2-4.2,2.4
		c-1.3,0.5-2.2,1.6-2.5,2.9c-0.5,2-1.3,3.8-2.2,5.1c-0.3,0.5-0.7,1-1.1,1.4C26.4,178.6,24.6,179.4,22.5,179.4z M28.4,150.1
		c-1.6,0.8-2.8,2.5-3.9,5.3c-0.9,2.4-2.8,4.3-5.2,5.1l-2.7,0.9c-0.1,0-1.3,0.4-1.7,0.6c-0.5,0.3-1.1,0.6-1.5,1.1
		c-1.1,1.2-1.6,2.6-1.6,4.1c0,1.5,0.6,3,1.7,4.1l4.9,4.9c1.1,1.1,2.5,1.7,4,1.7c1.5,0,3-0.6,4-1.7c0.5-0.4,0.8-0.8,0.9-1.1l0.1-0.1
		c0.9-1.4,1.5-2.9,1.8-4.6c0.4-1.9,1.7-3.3,3.5-4c1.6-0.6,3.1-1.5,3.7-2c0.6-0.5,0.6-1,0.6-1.3c0-0.3-0.2-0.6-0.2-0.6l0,0h-0.1
		c-0.1,0-0.1,0-0.2,0.1c0,0-0.1,0-0.1,0c-1,0.5-1.8,0.7-2.6,0.7c0,0,0,0,0,0c-0.8,0-1.5-0.3-2-0.8c-0.2-0.2-0.3-0.4-0.4-0.6
		c-0.1-0.1-0.1-0.2-0.2-0.3l-0.1-0.1l-0.4,0.4c-0.1,0.2-0.3,0.3-0.5,0.3c-0.2,0-0.4-0.1-0.5-0.3l-2.3-2.3c-0.3-0.3-0.3-0.5-0.2-0.9
		c0-0.1,0.1-0.2,0.2-0.3l2.3-2.2l-0.1-0.1c-0.1-0.1-0.2-0.2-0.3-0.3c-0.1-0.1-0.2-0.1-0.3-0.2c-0.6-0.6-0.9-1.3-0.9-2
		c0-0.5,0.1-0.9,0.2-0.9c0.1-0.2,0.4-0.8,1-1.6c0,0,0,0,0,0c0,0,0.1-0.1,0.1-0.2c0.1-0.2,0.1-0.4,0-0.6l0-0.1h-0.1
		c0,0-0.1,0-0.1-0.1c-0.1-0.1-0.1-0.1-0.2-0.1H29C28.9,150,28.6,150,28.4,150.1L28.4,150.1L28.4,150.1L28.4,150.1z M16.7,136.8
		c-1.4,0.6-2.6,1.7-3.5,3.4c-3.3,6.3-0.8,17.5,0.1,20.8l0,0.2l0.1-0.1c0.3-0.3,1-0.7,1.1-0.7h0.1l0-0.1c-1.2-4.9-1.7-9.3-1.5-12.9
		c0.1-3.1,0.7-5.6,1.7-7.7c0.5-0.9,1.1-1.8,1.9-2.6L16.7,136.8z M29,158.8l1.2,1.2l19.8-20.2l-0.6-0.6L29,158.8z M21.8,136
		c-0.1,0.1-0.2,0.1-0.3,0.1c-0.1,0-0.2,0-0.4,0.1c-4,1.2-6.1,5-6.3,11.1c-0.2,4.7,0.8,9.7,1.4,12.3l0,0.1l2.7-0.9
		c2-0.7,3.4-2.1,4.1-4.1c1.1-3.2,2.6-5.1,4.5-6.1l0.1,0l0-0.1c0-0.3,0.4-8.5-3.5-11.5C23.4,136.5,22.7,136.2,21.8,136L21.8,136
		L21.8,136z M25.6,136.1c3.1,3.1,3.6,8.9,3.6,12.1v0.1l0.1,0c0.4,0.1,0.7,0.3,1,0.5l0.1,0.1l0-0.1c0.3-1,0.4-2.1,0.3-3.3
		c-0.3-4.3-1.5-7.3-3.7-8.9c-0.1-0.1-0.2-0.1-0.4-0.2c-0.3-0.2-0.6-0.4-1-0.4l-0.3-0.1L25.6,136.1z M50.6,137.2l-0.3,0.7l0.8,0.8
		l0.1-0.1c0.6-0.5,1.3-0.8,2.1-0.8c0.4,0,0.8,0.1,1.2,0.3l0.1,0l3.2-5.1l-0.1-0.1L50.6,137.2z"/>
	<path class="st0" d="M22.1,170.7c-0.2,0-0.4-0.1-0.5-0.3l-2.8-2.8c-0.3-0.3-0.3-0.9,0-1.2c0.2-0.1,0.4-0.2,0.6-0.2
		c0.2,0,0.4,0.1,0.5,0.2l2.7,2.8c0.3,0.4,0.3,0.9,0,1.2C22.6,170.6,22.3,170.7,22.1,170.7z"/>
	<path class="st0" d="M24.8,167.6c-0.2,0-0.4-0.1-0.5-0.3l-2.2-2.2c-0.3-0.3-0.3-0.9,0-1.2c0.2-0.1,0.4-0.2,0.6-0.2
		c0.2,0,0.4,0.1,0.5,0.2l2.1,2.2c0.3,0.4,0.3,0.9,0,1.2C25.2,167.5,24.9,167.6,24.8,167.6z"/>
	<path class="st0" d="M28.2,164.1c-0.2,0-0.4-0.1-0.5-0.3l-2.2-2.2c-0.3-0.3-0.3-0.9,0-1.2c0.2-0.1,0.4-0.2,0.6-0.2
		c0.2,0,0.4,0.1,0.5,0.2l2.1,2.2c0.3,0.4,0.3,0.9,0,1.2C28.6,164,28.4,164.1,28.2,164.1z"/>
</g>
<g>
	<path class="st0" d="M107,155c-0.1-0.3-0.4-0.6-0.8-0.6s-0.7,0.2-0.8,0.6L98,177.5c-0.1,0.4,0.1,0.9,0.5,1c2.4,1,4.9,1.5,7.4,1.5
		s5.1-0.5,7.4-1.5c0.4-0.2,0.6-0.6,0.5-1L107,155z M99.9,177.3l6.3-19.2l5.8,19.2C108.1,178.7,103.8,178.7,99.9,177.3L99.9,177.3z"
		/>
	<path class="st0" d="M98.8,159.9c-1.1,0.9-1.8,2.2-1.9,3.6c-0.1,1.4,0.3,2.8,1.2,3.9c0.2,0.2,0.4,0.3,0.6,0.3s0.4-0.1,0.5-0.2
		c0.4-0.3,0.4-0.8,0.1-1.2c-0.6-0.8-0.9-1.7-0.8-2.7s0.6-1.9,1.3-2.5c1.1-0.9,1.8-2.2,1.9-3.6c0.1-1.4-0.3-2.8-1.2-3.9
		c4.6-1,8.2-5.8,8.2-11.7c0-6.6-4.4-11.9-9.9-11.9c-3.6,0-7,2.4-8.7,6.3c-0.2,0-0.5,0-0.7,0c-5.4,0-9.9,5.3-9.9,11.9
		c0,6.4,4.2,11.6,9.5,11.9l0.8,0.9c0.6,0.8,0.9,1.7,0.9,2.7c-0.1,1-0.6,1.9-1.3,2.5c-1.1,0.9-1.8,2.2-1.9,3.6
		c-0.1,1.4,0.3,2.8,1.2,3.9l2.8,3.4c0.2,0.2,0.4,0.3,0.6,0.3s0.4-0.1,0.5-0.2c0.4-0.3,0.4-0.8,0.1-1.2l-2.8-3.4
		c-0.6-0.8-0.9-1.7-0.8-2.7s0.6-1.9,1.3-2.5c1.1-0.9,1.8-2.2,1.9-3.6c0.1-1.4-0.3-2.8-1.2-3.9c3-0.6,5.6-2.9,7-6.1
		c0.1,0,0.2,0,0.3,0l0.8,0.9c0.6,0.8,0.9,1.7,0.9,2.7C100,158.4,99.6,159.3,98.8,159.9L98.8,159.9z M98.9,131.7
		c4.5,0,8.2,4.6,8.2,10.2c0,5.6-3.7,10.2-8.2,10.2h-0.1c0.4-1.2,0.6-2.6,0.6-4c0-5.6-3.2-10.3-7.5-11.5
		C93.4,133.6,96,131.7,98.9,131.7L98.9,131.7z M89.5,158.4c-4.5,0-8.2-4.6-8.2-10.2c0-5.6,3.7-10.2,8.2-10.2s8.2,4.6,8.2,10.2
		C97.7,153.8,94,158.4,89.5,158.4L89.5,158.4z"/>
	<path class="st0" d="M105.7,167.3c-0.2-0.5-0.7-0.6-1.2-0.4c-0.5,0.3-0.6,0.9-0.2,1.3c0.3,0.3,0.7,0.3,1,0.1
		C105.7,168.2,105.8,167.7,105.7,167.3C105.6,167.3,105.7,167.4,105.7,167.3L105.7,167.3z"/>
	<path class="st0" d="M107,172c0.1,0.3,0.4,0.5,0.8,0.5c0.3,0,0.7-0.2,0.8-0.5c0.1-0.3,0-0.7-0.2-0.9c-0.3-0.2-0.7-0.3-1-0.1
		C107,171.1,106.8,171.6,107,172C107,172,107,171.9,107,172L107,172z"/>
	<path class="st0" d="M104.3,175.6c-0.1-0.3-0.5-0.5-0.8-0.5s-0.6,0.3-0.7,0.6c-0.2,0.7,0.6,1.3,1.3,0.9
		C104.3,176.4,104.5,175.9,104.3,175.6C104.3,175.5,104.3,175.6,104.3,175.6L104.3,175.6z"/>
	<path class="st0" d="M75.7,133.8c-0.3-0.3-0.9-0.3-1.2,0c-0.3,0.3-0.3,0.9,0,1.2l1.1,1.1c0.2,0.2,0.4,0.2,0.6,0.2s0.4-0.1,0.6-0.2
		c0.3-0.3,0.3-0.9,0-1.2L75.7,133.8z"/>
	<path class="st0" d="M112.4,138.4c0.2,0,0.4-0.1,0.6-0.2l1.1-1.1c0.3-0.3,0.3-0.9,0-1.2s-0.9-0.3-1.2,0l-1.1,1.1
		c-0.3,0.3-0.3,0.9,0,1.2C111.9,138.3,112.1,138.4,112.4,138.4L112.4,138.4z"/>
	<path class="st0" d="M101.5,147.2c0.1,0.1,0.3,0.1,0.4,0.1c0.3,0,0.6-0.1,0.7-0.4l0.8-1.3c0.2-0.4,0.1-0.9-0.3-1.1
		c-0.4-0.2-0.9-0.1-1.1,0.3l-0.8,1.3C101,146.5,101.1,147,101.5,147.2L101.5,147.2z"/>
	<path class="st0" d="M84.1,168.1l-1.1,1.1c-0.3,0.3-0.3,0.9,0,1.2c0.2,0.2,0.4,0.2,0.6,0.2s0.4-0.1,0.6-0.2l1.1-1.1
		c0.3-0.3,0.3-0.9,0-1.2C84.9,167.7,84.4,167.7,84.1,168.1L84.1,168.1z"/>
	<path class="st0" d="M75.6,155.4c-0.5,0-0.8,0.4-0.8,0.8v1.5c0,0.5,0.4,0.8,0.8,0.8c0.5,0,0.8-0.4,0.8-0.8v-1.5
		C76.4,155.8,76,155.4,75.6,155.4L75.6,155.4z"/>
	<path class="st0" d="M114.8,151.9h-1.5c-0.5,0-0.8,0.4-0.8,0.8c0,0.5,0.4,0.8,0.8,0.8h1.5c0.5,0,0.8-0.4,0.8-0.8
		C115.7,152.3,115.3,151.9,114.8,151.9L114.8,151.9z"/>
	<path class="st0" d="M88.6,140.3h-1.5c-0.5,0-0.8,0.4-0.8,0.8c0,0.5,0.4,0.8,0.8,0.8h1.5c0.5,0,0.8-0.4,0.8-0.8
		S89.1,140.3,88.6,140.3L88.6,140.3z"/>
</g>
<g>
	<path class="st0" d="M152.9,165.5c0,0.5,0.4,0.8,0.9,0.8h0.1c0.5,0,0.9-0.5,0.8-1l-2.6-27.7h15.8l-1.8,19.1c0,0.5,0.3,0.9,0.8,1
		c0.5,0,0.9-0.3,1-0.8l2.4-25.1c0-0.3-0.1-0.5-0.2-0.7c-0.2-0.2-0.4-0.3-0.7-0.3h-18.7c-0.3,0-0.5,0.1-0.7,0.3s-0.3,0.4-0.2,0.7
		L152.9,165.5z M168.3,132.6l-0.3,3.2h-16.1l-0.3-3.2H168.3z"/>
	<path class="st0" d="M178.3,160.9c-1.2-1.7-2.8-2.7-4.5-2.7c-1.2,0-2.3,0.4-3.2,1.3v-1.8c0-0.5-0.4-0.9-0.9-0.9s-0.9,0.4-0.9,0.9
		v1.8c-1-0.8-2.1-1.3-3.2-1.3c-1.7,0-3.3,0.8-4.5,2.4c-1.1,1.5-1.7,3.6-1.7,5.8c0,0.4,0,0.8,0.1,1.3s0.5,0.8,1,0.7s0.8-0.5,0.7-1
		c-0.1-0.4-0.1-0.7-0.1-1c0-3.7,1.9-6.4,4.5-6.4c1.3,0,2.5,0.9,3.4,2.4c0.2,0.3,0.5,0.5,0.8,0.5s0.6-0.2,0.8-0.5
		c0.9-1.5,2.1-2.4,3.4-2.4c2.4,0,4.5,3.2,4.5,7c0,1.4-0.6,3-1.8,4.8c-0.4,0.6-0.8,1.1-1.3,1.5c-0.4,0.3-0.4,0.9-0.1,1.3
		c0.2,0.2,0.4,0.3,0.7,0.3c0.2,0,0.4-0.1,0.6-0.2c0.6-0.6,1.1-1.2,1.6-1.9c1.4-2.1,2.1-4.1,2.1-5.8
		C180,164.7,179.4,162.6,178.3,160.9L178.3,160.9z"/>
	<path class="st0" d="M171.9,172.3l-20.8-5c-1.7-0.4-3.4-0.1-4.9,0.9c-1,0.7-1.8,1.7-2.2,2.8l-4.3-3.6c-0.4-0.3-0.9-0.3-1.3,0.1
		c-0.3,0.4-0.3,0.9,0.1,1.3l3.1,2.7l-10.8-1c-0.5,0-0.9,0.3-1,0.8c0,0.5,0.3,0.9,0.8,1l10,0.9l-6.2,2.5c-0.5,0.2-0.7,0.7-0.5,1.2
		c0.1,0.3,0.5,0.6,0.8,0.6c0.1,0,0.2,0,0.3-0.1l8.5-3.4c0.1,1.2,0.7,2.4,1.5,3.3c1.1,1.3,2.8,2,4.5,2l0,0l21.4-0.2
		c1.7,0,3.1-1.3,3.3-3C174.7,174.3,173.6,172.7,171.9,172.3L171.9,172.3z M172.7,175.8c-0.1,0.8-0.8,1.4-1.6,1.4l-21.4,0.2
		c-1.2,0-2.4-0.5-3.2-1.4s-1.2-2.1-1.1-3.3c0.1-1.2,0.8-2.3,1.8-3c0.7-0.5,1.6-0.8,2.4-0.8c0.3,0,0.7,0,1,0.1l20.8,5
		C172.3,174.3,172.8,175,172.7,175.8L172.7,175.8z"/>
	<path class="st0" d="M157,141.4c-1.4,0-2.5,1.1-2.5,2.5s1.1,2.5,2.5,2.5s2.5-1.1,2.5-2.5S158.4,141.4,157,141.4L157,141.4z
		 M157,144.6c-0.4,0-0.7-0.3-0.7-0.7s0.3-0.7,0.7-0.7s0.7,0.3,0.7,0.7S157.4,144.6,157,144.6L157,144.6z"/>
	<path class="st0" d="M161.3,154.8c1.6,0,2.9-1.3,2.9-2.9c0-0.5-0.4-0.9-0.9-0.9s-0.9,0.4-0.9,0.9c0,0.6-0.5,1.1-1.1,1.1
		s-1.1-0.5-1.1-1.1s0.5-1.1,1.1-1.1c0.5,0,0.9-0.4,0.9-0.9s-0.4-0.9-0.9-0.9c-1.6,0-2.9,1.3-2.9,2.9S159.7,154.8,161.3,154.8
		L161.3,154.8z"/>
</g>
<g>
	<path class="st0" d="M197.5,177.9c-0.5,0-0.9-0.4-0.9-0.9v-10.3h-5.7c-0.5,0-0.9-0.4-0.9-0.9V133c0-0.5,0.4-0.9,0.9-0.9H239
		c0.6,0,0.9,0.5,1,0.9l0,32.8c0,0.5-0.4,0.9-0.9,0.9h-5.7V177c0,0.5-0.4,0.9-0.9,0.9H197.5z M198.3,176.1h33.2v-13.4h-2.2V173
		c0,0.5-0.4,0.9-0.9,0.9h-27c-0.5,0-0.9-0.4-0.9-0.9v-10.3h-2.2V176.1z M202.4,172.1h25.1v-9.4h-25.1V172.1z M233.3,164.9h4.8v-5.8
		h-46.3v5.8h4.8v-2.2h-2.2c-0.5,0-0.9-0.4-0.9-0.9c0-0.5,0.4-0.9,0.9-0.9h41.1c0.5,0,0.9,0.4,0.9,0.9c0,0.5-0.4,0.9-0.9,0.9h-2.2
		V164.9z M191.8,157.3h46.3v-23.4h-46.3V157.3z"/>
	<path class="st0" d="M214.9,155.1c-5.2,0-9.4-4.2-9.4-9.4s4.2-9.4,9.4-9.4s9.4,4.2,9.4,9.4S220.1,155.1,214.9,155.1z M214.9,138.2
		c-4.2,0-7.6,3.4-7.6,7.6c0,4.3,3.3,7.6,7.6,7.6c4.2,0,7.6-3.4,7.6-7.6S219.1,138.2,214.9,138.2z"/>
	<path class="st0" d="M214.9,151.3c-3.1,0-5.6-2.5-5.6-5.6c0-3,2.6-5.6,5.6-5.6s5.6,2.6,5.6,5.6C220.6,148.7,218,151.3,214.9,151.3z
		 M214.9,141.9c-2.1,0-3.8,1.7-3.8,3.8c0,2.1,1.7,3.8,3.8,3.8c2.1,0,3.8-1.7,3.8-3.8C218.8,143.6,217,141.9,214.9,141.9z"/>
	<path class="st0" d="M225.9,143.3c-0.6,0-0.9-0.5-0.9-0.9v-5.3c0-0.5,0.4-0.9,0.9-0.9h9.7c0.5,0,0.9,0.4,0.9,0.9v5.3
		c0,0.5-0.4,0.9-0.9,0.9H225.9z M226.8,141.5h7.9V138h-7.9V141.5z"/>
	<path class="st0" d="M199.1,154.7c-1.9,0-3.5-1.6-3.5-3.5s1.6-3.5,3.5-3.5c1.9,0,3.5,1.6,3.5,3.5S201.1,154.7,199.1,154.7z
		 M199.1,149.5c-1,0-1.7,0.9-1.7,1.7c0,1,0.7,1.7,1.7,1.7c1,0,1.7-0.7,1.7-1.7S200.1,149.5,199.1,149.5z"/>
	<path class="st0" d="M230.8,154.7c-1.9,0-3.5-1.6-3.5-3.5s1.6-3.5,3.5-3.5c1.9,0,3.5,1.6,3.5,3.5
		C234.3,153.1,232.7,154.7,230.8,154.7z M230.8,149.5c-1,0-1.7,0.7-1.7,1.7s0.7,1.7,1.7,1.7c1,0,1.7-0.7,1.7-1.7
		S231.7,149.5,230.8,149.5z"/>
</g>
<g>
	<path class="st0" d="M354.1,157.4h-1.7v-6.8c0-2.1-1.7-3.9-3.9-3.9h-1l1.7-2.1c0.3-0.4,0.2-0.9-0.2-1.2l-4.9-3.8l-2.7-8.2
		c-0.1-0.2-0.2-0.4-0.4-0.5c-0.2-0.1-0.4-0.1-0.7,0l-5.2,1.7l-3-2.4c-0.4-0.3-0.9-0.2-1.2,0.2l-12.7,16.4h-2.3
		c-0.5,0-0.9,0.4-0.9,0.9v31.5c0,0.5,0.4,0.9,0.9,0.9h32.7c2.1,0,3.9-1.7,3.9-3.9v-6.8h1.7c0.5,0,0.9-0.4,0.9-0.9v-10.1
		C355,157.8,354.6,157.4,354.1,157.4L354.1,157.4z M345.3,146.8L345.3,146.8c-0.7-0.8-1-1.7-1-2.7c0-0.6,0.1-1.3,0.4-1.8l2.6,2
		L345.3,146.8z M340,132.8l1.6,4.8l-4.8-3.8L340,132.8z M331.7,132.1l2.6,2c-0.8,0.6-1.7,1-2.7,1c-0.6,0-1.3-0.1-1.8-0.4
		L331.7,132.1z M328.6,136.1c0.9,0.5,1.9,0.8,2.9,0.8c1.6,0,3-0.6,4.1-1.7l7.7,6c-0.5,0.9-0.8,1.9-0.8,2.9c0,0.9,0.2,1.9,0.6,2.7
		h-22.9L328.6,136.1z M350.7,176.1c0,1.2-1,2.1-2.1,2.1h-31.8v-29.8h31.8c1.2,0,2.1,1,2.1,2.1v6.8h-8.3c-0.5,0-0.9,0.4-0.9,0.9v10.1
		c0,0.5,0.4,0.9,0.9,0.9h8.3V176.1z M353.3,167.6h-10v-8.4h10V167.6z"/>
	<path class="st0" d="M348.3,166c1.4,0,2.6-1.2,2.6-2.6c0-1.4-1.2-2.6-2.6-2.6s-2.6,1.2-2.6,2.6C345.7,164.8,346.8,166,348.3,166
		L348.3,166z M348.3,162.5c0.5,0,0.9,0.4,0.9,0.9s-0.4,0.9-0.9,0.9s-0.9-0.4-0.9-0.9S347.8,162.5,348.3,162.5L348.3,162.5z"/>
</g>
<path class="st0" d="M250.9,180.1c-0.1,0-0.1,0-0.2,0c-0.3-0.1-0.6-0.4-0.7-0.7c0-0.1,0-0.1,0-0.2v-12.5c0-0.1,0-0.1,0-0.2
	c0.1-0.3,0.4-0.6,0.7-0.7c0.1,0,0.1,0,0.2,0h2.2v-19h-2.2c-0.1,0-0.1,0-0.2,0c-0.3-0.1-0.6-0.4-0.7-0.7c0-0.1,0-0.1,0-0.2v-8.4
	c0-0.5,0.3-0.8,0.7-0.9l24.1-6.3c0.1,0,0.1,0,0.2,0c0.1,0,0.1,0,0.2,0c0,0,0.1,0,0.2,0l23.9,6.2c0.1,0,0.1,0,0.2,0.1
	c0.2,0.1,0.4,0.3,0.4,0.5c0,0.1,0.1,0.2,0.1,0.4v8.4c0,0.1,0,0.1,0,0.2c-0.1,0.3-0.4,0.6-0.7,0.7c-0.1,0-0.1,0-0.2,0h-2.1v19h2.2
	c0.1,0,0.1,0,0.2,0c0.3,0.1,0.6,0.4,0.7,0.7c0,0.1,0,0.1,0,0.2v12.5c0,0.1,0,0.1,0,0.2c-0.1,0.3-0.4,0.6-0.7,0.7c-0.1,0-0.1,0-0.2,0
	H250.9z M298.1,178.4v-10.7h-4.4v10.7H298.1z M291.8,178.4v-11.7c0-0.4,0.3-0.7,0.7-0.8c0.1,0,0.1,0,0.2,0l0.1,0l2.3,0v-6.1
	L282,146.7l-13.8,0L255,159.9l0,6h2.2c0.1,0,0.1,0,0.2,0c0.3,0.1,0.6,0.4,0.7,0.7c0,0.1,0,0.1,0,0.2v11.6H291.8z M256.2,178.4v-10.7
	h-4.4v10.7H256.2z M255,157.1l10.4-10.4H255V157.1z M295,157.1v-10.4h-10.4L295,157.1z M298.1,144.8v-6.7l-7.5-2v8.6H298.1z
	 M288.8,144.8v-9.1l-1.8-0.6l-9.7,9.7H288.8z M272.7,144.8l-9.7-9.7l-1.8,0.6v9.1H272.7z M259.4,144.8v-8.6l-7.5,2v6.7H259.4z
	 M274.1,143.4v-11.2l-8.8,2.3L274.1,143.4z M275.9,143.4l8.8-8.8l-8.8-2.3V143.4z"/>
<path class="st0" d="M19.9,240c-2.3,0-4.2-1.9-4.2-4.2V211h-0.9c-2.3,0-4.2-1.9-4.2-4.2v-1.2c0-2.3,1.9-4.2,4.2-4.2h11.9l-0.4-0.4
	c-0.2-0.2-0.5-0.4-0.7-0.6c-3-3-3.6-7-1.5-9.1c0.8-0.8,1.9-1.2,3.2-1.2c2,0,4.2,1,5.9,2.7c0.7,0.7,1.2,1.4,1.7,2.2l0.2,0.3l0.2-0.3
	c0.4-0.8,1-1.5,1.7-2.2c1.7-1.7,3.9-2.7,5.9-2.7c1.3,0,2.4,0.4,3.2,1.2c1.1,1.1,1.5,2.6,1.1,4.4c-0.3,1.7-1.2,3.3-2.6,4.7
	c-0.2,0.2-0.4,0.4-0.7,0.6l-0.4,0.4h11.9c2.3,0,4.2,1.9,4.2,4.2v1.2c0,2.3-1.9,4.2-4.2,4.2h-0.9v24.8c0,2.3-1.9,4.2-4.2,4.2H19.9z
	 M50.1,238.3c1.4,0,2.5-1.1,2.5-2.5V211H39.3v27.3H50.1z M37.6,238.3v-35.2h-5.2v35.2H37.6z M17.4,235.8c0,1.4,1.1,2.5,2.5,2.5h10.8
	V211H17.4V235.8z M55.2,209.2c1.4,0,2.5-1.1,2.5-2.5v-1.2c0-1.4-1.1-2.5-2.5-2.5H39.3v6.2H55.2z M14.8,203.1c-1.4,0-2.5,1.1-2.5,2.5
	v1.2c0,1.4,1.1,2.5,2.5,2.5h15.9v-6.2H14.8z M42.7,191.8c-1.5,0-3.3,0.8-4.6,2.2c-2.2,2.2-2.9,5.2-1.5,6.6c0.6,0.6,1.4,0.7,2,0.7
	c1.5,0,3.3-0.8,4.6-2.2c1.1-1.1,1.9-2.5,2.1-3.8c0.2-1.2,0-2.2-0.6-2.8C44.1,191.9,43.3,191.8,42.7,191.8z M27.3,191.8
	c-0.6,0-1.4,0.1-2,0.7c-1.4,1.4-0.7,4.4,1.5,6.6c1.4,1.4,3.1,2.2,4.6,2.2c0.6,0,1.4-0.1,2-0.7c0.6-0.6,0.9-1.7,0.6-2.8
	c-0.2-1.3-1-2.7-2.1-3.8C30.5,192.6,28.8,191.8,27.3,191.8z"/>
<g>
	<path class="st0" d="M97,204.2c-1.1-0.7-6.6-4.3-6.6-8.3c0-2.1,1.7-3.8,3.8-3.8c1,0,2,0.4,2.7,1.1l0.1,0.1l0.1-0.1
		c0.7-0.7,1.7-1.1,2.7-1.1c2.1,0,3.8,1.7,3.8,3.8c0,4-5.5,7.6-6.6,8.3H97L97,204.2z M94.2,193.8c-1.2,0-2.1,0.9-2.1,2.1
		c0,1.3,1,2.9,2.8,4.6c0.6,0.6,1.3,1.1,2.1,1.7l0.1,0.1l0.1-0.1c0.5-0.4,1.3-0.9,2.1-1.7c1.8-1.6,2.8-3.3,2.8-4.6
		c0-1.2-0.9-2.1-2.1-2.1c-0.6,0-1.1,0.2-1.5,0.6l-1.4,1.4l-1.4-1.4C95.3,194.1,94.8,193.8,94.2,193.8z"/>
	<path class="st0" d="M69.9,237.9v-4.3c0-1.5,1-2.9,2.4-3.4l0.1,0c1.7-0.5,3-0.9,3.7-1.2c2.6-1,3.4-1.8,3.7-2.2l0-0.1l0-1.5l0,0
		c-2-2.3-3.1-5.2-3.1-7.7c0-0.5,0-1.1,0.1-1.6l0-0.2l-0.2-0.1c-0.6-0.2-1-0.4-1.3-0.5l-0.1,0l0-0.1c0.3-1.1,2.1-6.7,4.3-8
		c1.9-1.1,3.9-1.7,5.9-1.7c2.5,0,4.6,0.9,5.5,1.7c4.7,4.3,3.1,10.4,3.1,10.5c0,2.6-1.2,5.4-3.1,7.8l-0.1,0.1l0,1.5
		c0.4,0.7,1.6,1.5,3.7,2.3c0.8,0.3,2,0.7,3.8,1.2l0.1,0c0.3,0.1,0.5,0.2,0.8,0.4l0.1,0.1l0.1-0.1c0.4-0.2,0.7-0.3,1-0.4l0.6-0.3
		l-0.6-0.1c-3.5-0.6-4.8-1.7-4.9-1.8l-0.7-0.7l0.7-0.6c1.2-1,1.5-3.5,1.7-6.1c0.3-2.5,0.5-5.4,1.8-7.7c0.7-1.3,1.7-2.2,2.9-2.9
		c1.3-0.7,3-1.1,5-1.1c2,0,3.7,0.4,5,1.1c1.2,0.7,2.2,1.6,2.9,2.9c1.3,2.2,1.6,5.1,1.8,7.6c0.3,2.6,0.5,5.1,1.7,6.1l0.7,0.6
		l-0.7,0.7c-0.1,0.1-1.4,1.1-4.9,1.8l-0.6,0.1l0.6,0.3c0.3,0.1,0.7,0.3,1.1,0.5c0.6,0.2,1.7,0.6,3.1,1c1.3,0.4,2.1,1.5,2.1,2.8v3.6
		H69.9z M118.2,236.2v-1.9c0-0.5-0.3-1-0.8-1.2c-1.5-0.4-2.6-0.8-3.3-1.1c-2.2-0.9-3.4-1.7-3.9-2.7L110,229l-0.2,0.1
		c-0.9,0.7-1.9,1-2.6,1c-0.8,0-1.7-0.4-2.6-1l-0.2-0.1l-0.2,0.5l-0.1,0.1c-0.4,0.9-1.5,1.6-3.2,2.4l-0.2,0.1l0.1,0.2
		c0.2,0.5,0.3,0.9,0.3,1.4v2.7H118.2z M99.3,236.2v-2.7c0-0.8-0.5-1.5-1.3-1.8c-1.8-0.5-3.1-1-3.9-1.3c-2.6-1-4-1.9-4.6-3l-0.3-0.7
		l-0.2,0.2c-1.3,1-2.6,1.5-3.6,1.5s-2.3-0.5-3.6-1.5l-0.2-0.2l-0.3,0.7c-0.6,1.1-2,2-4.6,3c-0.8,0.3-2.1,0.8-3.9,1.3
		c-0.8,0.3-1.3,1-1.3,1.8v2.7H99.3z M101.7,220.6c0,0.1,0,0.3,0,0.4c0,1.7,0.8,3.6,2.2,5.3c1.2,1.5,2.6,2.2,3.3,2.2
		c0.7,0,2.1-0.8,3.3-2.2c1.4-1.6,2.2-3.5,2.2-5.3c0-0.9-0.1-1.8-0.4-2.5l0-0.1l-0.1,0c-1.5-0.6-2.8-1.4-3.5-1.9l-0.1-0.1l-0.4,0.4
		c-1.5,1.3-3,2.3-4.5,3.1c-0.5,0.3-1.1,0.5-1.6,0.7l-0.1,0L101.7,220.6z M97.8,227.2c0.4,0.2,0.8,0.3,1.2,0.4c1,0.3,2.1,0.5,3.4,0.7
		l0.2,0l0-1l0,0c-1.6-1.9-2.5-4.1-2.6-6.2l0-0.2l-0.2,0c-0.2,0-0.3,0.1-0.5,0.1l-0.2,0l0,0.2c-0.2,2.3-0.5,4.3-1.4,5.7l-0.1,0.2
		L97.8,227.2z M114.2,219.2c0.1,0.6,0.2,1.1,0.2,1.8c0,2.1-0.9,4.4-2.6,6.3l-0.1,0.1l0,0.9l0.2,0c1.3-0.1,2.4-0.4,3.4-0.7
		c0.4-0.1,0.8-0.3,1.2-0.4l0.2-0.1l-0.1-0.2c-1-1.6-1.2-3.8-1.4-6.2c-0.1-0.6-0.1-1.1-0.2-1.6l0-0.2l-0.2,0c-0.2,0-0.3,0-0.5-0.1
		l-0.3-0.1L114.2,219.2z M78.5,216.1c0,0.4-0.1,0.8-0.1,1.2c0,2.2,1,4.6,2.7,6.6c1.7,2,3.4,2.8,4.3,2.8c0.9,0,2.6-0.9,4.3-2.8
		c1.7-2,2.7-4.5,2.7-6.6c0-0.4,0-0.7-0.1-1.1l0-0.1l-0.1,0c-0.3-0.2-0.5-0.4-0.6-0.6c-0.1-0.2-0.2-0.4-0.4-0.6
		c-0.5-0.7-0.8-1.3-1.7-1.3c-0.7,0-1.6,0.3-3.1,1c-2,0.9-4,1.4-6.1,1.4c-0.6,0-1.2,0-1.7-0.1l-0.2,0L78.5,216.1z M107.2,210.6
		c-3.2,0-5.2,1-6.4,3.1c-0.9,1.5-1.2,3.5-1.4,5.3l0,0.3l0.3-0.1c2.4-0.4,4.8-1.8,7.3-3.9c1.9-1.7,3.3-3.3,3.7-3.9l0.2-0.2l-0.3-0.1
		C109.5,210.8,108.5,210.6,107.2,210.6L107.2,210.6L107.2,210.6z M109.9,215.2c1.1,0.7,2.7,1.7,4.6,2l0.3,0.1l-0.1-0.3
		c-0.3-1.3-0.6-2.4-1.1-3.3c-0.3-0.6-0.7-1.1-1.2-1.5l-0.2-0.1l-0.1,0.2c-0.2,0.2-1,1.3-2.3,2.6l-0.2,0.2L109.9,215.2z M77.7,214
		c0.9,0.2,1.9,0.4,2.8,0.4c1.8,0,3.6-0.4,5.4-1.2c1.8-0.8,2.9-1.2,3.8-1.2c0.9,0,1.6,0.3,2.2,0.8c0.1,0.1,0.3,0.3,0.4,0.4l0.4-0.2
		c-0.3-2-1.2-3.6-2.7-5c-0.5-0.5-2.2-1.2-4.4-1.2c-1.8,0-3.5,0.5-5.1,1.4c-0.3,0.2-1.2,0.9-2.4,3.9c-0.2,0.6-0.4,1.1-0.6,1.6
		l-0.1,0.2L77.7,214z"/>
</g>
<path class="st0" d="M145.2,239.4c-0.6,0-1-0.5-1-1V234h-4.3c-0.6,0-1-0.5-1-1s0.5-1,1-1h4.3v-5.7l-1.2-0.2
	c-7.5-1.1-13.1-7.6-13.1-15.1c0-8.4,6.9-15.3,15.3-15.3c2.3,0,4.5,0.5,6.5,1.5l0.6,0.3l0.6-0.3c2.1-1,4.3-1.5,6.5-1.5
	c3.3,0,6.5,1.1,9.2,3.1l1,0.7l6.8-6.8h-5.1c-0.6,0-1-0.5-1-1s0.5-1,1-1h7.6l0.1,0l0.2,0l0.1,0l0.1,0.1c0.1,0.1,0.2,0.2,0.2,0.2
	l0.1,0.1l0.1,0.1l0,0.1l0,0.2l0,7.7c0,0.6-0.5,1-1,1c-0.6,0-1-0.5-1-1v-5.1l-6.8,6.8l0.7,1c2,2.7,3,5.8,3,9.1
	c0,8.4-6.9,15.3-15.3,15.3c-2.3,0-4.5-0.5-6.5-1.5l-0.6-0.3l-0.6,0.3c-1.4,0.7-2.8,1.1-4.3,1.3l-1.2,0.2v5.7h4.3c0.6,0,1,0.5,1,1
	s-0.5,1-1,1h-4.3v4.3C146.3,238.9,145.8,239.4,145.2,239.4z M156.9,224c0.9,0.2,1.7,0.3,2.6,0.3c7.3,0,13.3-5.9,13.3-13.3
	s-5.9-13.3-13.3-13.3c-0.9,0-1.8,0.1-2.6,0.3l-2.5,0.5l1.8,1.8c2.8,2.9,4.4,6.7,4.4,10.7c0,4-1.5,7.8-4.4,10.7l-1.8,1.8L156.9,224z
	 M145.2,197.8c-7.3,0-13.3,5.9-13.3,13.3s5.9,13.3,13.3,13.3c0.9,0,1.8-0.1,2.6-0.3l2.5-0.5l-1.8-1.8c-2.8-2.9-4.4-6.7-4.4-10.7
	s1.5-7.8,4.4-10.7l1.8-1.8l-2.5-0.5C147,197.8,146.1,197.8,145.2,197.8z M151.6,200.4c-3.4,2.5-5.3,6.4-5.3,10.6s1.9,8.1,5.3,10.6
	l0.8,0.6l0.8-0.6c3.4-2.5,5.3-6.4,5.3-10.6s-1.9-8.1-5.3-10.6l-0.8-0.6L151.6,200.4z"/>
<g>
	<path class="st0" d="M353.1,115.8c-1.4,0-2.5-1.1-2.5-2.5c0-1.4,1-2.5,2.3-2.5c0.1,0,0.1,0,0.2,0c1.4,0,2.5,1.1,2.5,2.5
		S354.6,115.8,353.1,115.8z M353.1,112.4c-0.5,0-0.9,0.4-0.9,0.9s0.4,0.9,0.9,0.9c0.5,0,0.9-0.4,0.9-0.9
		C354,112.7,353.6,112.4,353.1,112.4z"/>
	<path class="st0" d="M321.3,115.7c-1.4,0-2.5-1.1-2.5-2.5s1.1-2.5,2.5-2.5c1.4,0,2.5,1.1,2.5,2.5
		C323.8,114.6,322.8,115.7,321.3,115.7z M321.3,112.4c-0.5,0-0.9,0.4-0.9,0.9c0,0.5,0.4,0.9,0.9,0.9c0.5,0,0.9-0.4,0.9-0.9
		C322.2,112.8,321.8,112.4,321.3,112.4z"/>
	<path class="st0" d="M331.9,115.7c-1.4,0-2.5-1.1-2.5-2.5s1.1-2.5,2.5-2.5c1.4,0,2.5,1.1,2.5,2.5S333.3,115.7,331.9,115.7z
		 M331.9,112.4c-0.5,0-0.9,0.4-0.9,0.9c0,0.5,0.4,0.9,0.9,0.9s0.9-0.4,0.9-0.9C332.8,112.8,332.4,112.4,331.9,112.4z"/>
	<path class="st0" d="M342.5,115.7c-1.4,0-2.5-1.1-2.5-2.5s1.1-2.5,2.5-2.5c1.4,0,2.5,1.1,2.5,2.5S343.9,115.7,342.5,115.7z
		 M342.5,112.4c-0.5,0-0.9,0.4-0.9,0.9c0,0.5,0.4,0.9,0.9,0.9s0.9-0.4,0.9-0.9C343.4,112.8,343,112.4,342.5,112.4z"/>
	<path class="st0" d="M352.9,118.9c-2.3,0-4.5-1.6-5.2-3.8l-0.1-0.3l-0.1,0.3c-0.7,2.3-2.8,3.8-5.2,3.8c-2.3,0-4.5-1.6-5.2-3.8
		l-0.1-0.3l-0.1,0.3c-0.7,2.3-2.8,3.8-5.2,3.8c-2.3,0-4.5-1.6-5.2-3.8l-0.1-0.3l-0.1,0.3c-0.7,2.3-2.8,3.8-5.2,3.8
		c-2.2,0-4.3-1.4-5.1-3.4l0-0.1h-5.2c-0.4,0-0.8-0.4-0.8-0.8v-3.7c0-0.2,0.1-0.4,0.2-0.6l4.9-5.7l0-0.1c-2.3-4.1-3.3-8.6-2.7-13.1
		l2-15.6c0.1-0.3,0.3-0.7,0.8-0.7h12.4l0-0.1c0.2-2.1,1.9-3.6,3.9-3.6h2.1c0.4,0,0.8,0.4,0.8,0.8v6.7h1.4c0.4,0,0.7,0.3,0.8,0.6
		l1.3,5.3c0,0.3,0,0.5-0.2,0.7c-0.1,0.1-0.2,0.2-0.4,0.3l-0.1,0.1l0.1,0.1c0.1,0.2,0.2,0.3,0.3,0.4c0.1,0.1,0.2,0.2,0.3,0.4l0,0.1
		l1.2-0.5c0.1-0.1,0.3-0.1,0.4-0.1c0.2,0,0.4,0.1,0.6,0.3l3.6,4.3c0.2,0.2,0.3,0.5,0.2,0.7l0,0v0.2l0.1,0c1.7,0.9,3.5,1.6,5.8,2
		l2.7,0.5c3.9,0.6,6.9,3.7,7.5,7.7l0,0.5c0,1.3-0.7,2.4-1.8,3.1c-0.8,0.5-1.8,0.8-3.1,1l-0.9,1.6l0.1,0c2.4,0.7,4,2.8,4,5.3
		C358.4,116.4,356,118.9,352.9,118.9z M353.1,109.5c-2.1,0-3.8,1.7-3.8,3.8s1.7,3.8,3.8,3.8c2.1,0,3.8-1.7,3.8-3.8
		c0-2.1-1.6-3.8-3.6-3.8L353.1,109.5z M342.5,109.5c-2.1,0-3.8,1.7-3.8,3.8s1.7,3.8,3.8,3.8c2.1,0,3.8-1.7,3.8-3.8
		C346.3,111.2,344.6,109.5,342.5,109.5z M331.9,109.5c-2.1,0-3.8,1.7-3.8,3.8s1.7,3.8,3.8,3.8s3.8-1.7,3.8-3.8
		S334,109.5,331.9,109.5z M321.3,109.5c-2.1,0-3.8,1.7-3.8,3.8s1.7,3.8,3.8,3.8c2.1,0,3.8-1.7,3.8-3.8S323.4,109.5,321.3,109.5z
		 M311.9,111l0,2.6h4v-0.4c0-3,2.5-5.5,5.5-5.5c2.3,0,4.5,1.6,5.2,3.8l0.1,0.3l0.1-0.3c0.7-2.3,2.8-3.8,5.2-3.8
		c2.3,0,4.5,1.6,5.2,3.8l0.1,0.3l0.1-0.3c0.7-2.3,2.8-3.8,5.2-3.8c2.3,0,4.5,1.6,5.2,3.8l0.1,0.3l0.1-0.3c0.7-2.1,2.6-3.5,4.7-3.7
		l0.8-1.2l0.1-0.1l-36.8-1L311.9,111z M314.6,98.3c0.5,2,1.3,3.8,2.2,5.4l38.2,1c0.5,0,1.6-0.1,2.5-0.7c0.4-0.2,0.7-0.6,0.8-1l0-0.1
		h-28.4c-6.5,0-12.3-3-15.1-4.8l-0.2-0.1L314.6,98.3z M314.2,91.5c-0.2,1.3-0.2,2.7-0.1,4.4c2.5,1.7,8.8,5.6,15.8,5.6h28.3l0-0.1
		c-0.7-2.9-3-5.1-6-5.6l-2.7-0.5c-0.4,0-0.8-0.1-1.2-0.2l-0.1,0l-1.8,2.1c-0.2,0.2-0.4,0.3-0.6,0.3c-0.2,0-0.4-0.1-0.6-0.2
		c-0.3-0.3-0.3-0.8-0.1-1.2l1.4-1.6l-1.7-0.7l-2.4,2.3c-0.2,0.1-0.4,0.2-0.5,0.2c-0.3,0-0.4-0.1-0.6-0.3c-0.2-0.2-0.3-0.4-0.3-0.7
		c0-0.2,0.1-0.4,0.3-0.5l2-1.9l-0.1-0.1c-0.2-0.1-0.3-0.2-0.5-0.3c-0.1-0.1-0.3-0.1-0.4-0.2l-15.7,7c-0.1,0.1-0.3,0.1-0.4,0.1
		c0,0-0.1,0-0.1,0c-0.1,0-0.1-0.1-0.2-0.1c-0.1-0.1-0.3-0.3-0.4-0.4l-2.1-4.9c-0.2-0.5,0-0.9,0.4-1.1l12.7-5.7l-0.1-0.1
		c-0.2-0.3-0.3-0.5-0.5-0.8c-0.2-0.2-0.3-0.5-0.5-0.7l-9.8,0c-0.3,0-0.6-0.3-0.7-0.5l0-0.1h-6.6c-0.4,0-0.8-0.4-0.8-0.8v-4.2
		c0-0.4,0.4-0.8,0.8-0.8h6.6l0-0.1c0.1-0.3,0.4-0.4,0.7-0.4h2.1v-2.2h-11.7L314.2,91.5z M325.4,94.2l1.4,3.4l15.1-6.8l-2.5-3
		L325.4,94.2z M326.5,84.1h9.7l-1-3.7h-8.8V84.1z M319.2,83.6h5.7V81h-5.7V83.6z M331.7,72.9c-1.2,0-2.3,1.1-2.3,2.3v3.6h3.5v-5.9
		H331.7z"/>
</g>
</svg>
